<svg width="42" height="42" viewBox="0 0 42 42" fill="none" xmlns="http://www.w3.org/2000/svg">
<g id="cil:history">
<path id="Vector" d="M21.0205 1.3125C15.8558 1.31525 10.8991 3.34737 7.21875 6.97077V1.3125H4.59375V11.8125H15.0938V9.1875H8.71886C10.31 7.52899 12.2199 6.20904 14.3338 5.30688C16.4477 4.40472 18.7221 3.93894 21.0205 3.9375C30.4172 3.9375 38.0625 11.5828 38.0625 20.9795C38.0625 30.3762 30.4172 38.0215 21.0205 38.0215C11.6238 38.0215 3.97852 30.3762 3.97852 20.9795H1.35352C1.35351 24.8693 2.50696 28.6717 4.66799 31.9059C6.82903 35.1401 9.9006 37.6609 13.4943 39.1494C17.0879 40.638 21.0423 41.0275 24.8574 40.2686C28.6724 39.5098 32.1767 37.6367 34.9272 34.8862C37.6777 32.1357 39.5508 28.6314 40.3096 24.8163C41.0685 21.0013 40.679 17.0469 39.1905 13.4533C37.7019 9.85958 35.1811 6.78801 31.9469 4.62698C28.7127 2.46594 24.9103 1.3125 21.0205 1.3125Z" fill="white"/>
<path id="Vector_2" d="M19.6875 9.18359L19.6436 23.6251H30.1875V21.0001H22.2767L22.3125 9.19163L19.6875 9.18359Z" fill="white"/>
</g>
</svg>
