<svg width="37" height="37" viewBox="0 0 37 37" fill="none" xmlns="http://www.w3.org/2000/svg">
<circle cx="18.5" cy="18.5" r="18.5" fill="url(#paint0_linear_553_145)"/>
<path d="M15.3125 23.7778V24.8333C15.3125 25.6732 15.6483 26.4786 16.2461 27.0725C16.8439 27.6664 17.6546 28 18.5 28C19.3454 28 20.1561 27.6664 20.7539 27.0725C21.3517 26.4786 21.6875 25.6732 21.6875 24.8333V23.7778M16.375 11.1111C16.375 10.5512 16.5989 10.0142 16.9974 9.61833C17.3959 9.22242 17.9364 9 18.5 9C19.0636 9 19.6041 9.22242 20.0026 9.61833C20.4011 10.0142 20.625 10.5512 20.625 11.1111C21.8452 11.6843 22.8854 12.5766 23.6341 13.6923C24.3827 14.808 24.8117 16.105 24.875 17.4444V20.6111C24.955 21.2674 25.1889 21.8958 25.558 22.4458C25.9271 22.9958 26.421 23.4521 27 23.7778H10C10.579 23.4521 11.0729 22.9958 11.442 22.4458C11.8111 21.8958 12.045 21.2674 12.125 20.6111V17.4444C12.1883 16.105 12.6173 14.808 13.3659 13.6923C14.1146 12.5766 15.1548 11.6843 16.375 11.1111Z" stroke="white" stroke-width="1.5" stroke-linecap="round" stroke-linejoin="round"/>
<defs>
<linearGradient id="paint0_linear_553_145" x1="18.5" y1="0" x2="18.5" y2="37" gradientUnits="userSpaceOnUse">
<stop stop-color="#399793"/>
<stop offset="1" stop-color="#22BC8E"/>
</linearGradient>
</defs>
</svg>
