<svg width="24" height="24" viewBox="0 0 24 24" fill="none" xmlns="http://www.w3.org/2000/svg">
<circle cx="12" cy="12" r="12" fill="#FF5959"/>
<path d="M11.328 14.112L10.832 6.8H13.808L13.312 14.112H11.328ZM12.32 18.128C11.872 18.128 11.504 17.984 11.216 17.696C10.928 17.408 10.784 17.0667 10.784 16.672C10.784 16.2667 10.928 15.9307 11.216 15.664C11.504 15.3867 11.872 15.248 12.32 15.248C12.7787 15.248 13.1467 15.3867 13.424 15.664C13.712 15.9307 13.856 16.2667 13.856 16.672C13.856 17.0667 13.712 17.408 13.424 17.696C13.1467 17.984 12.7787 18.128 12.32 18.128Z" fill="white"/>
</svg>
